Date: Tue, 18 Sep 2001 14:17:58 -0700
From: Bruce Blinn <>
Subject: Re: Reading Windows CD on Linux 2.4.6
Sender: linux-kernel-owner@vger.kernel.org
Precedence: bulk
List-ID: <linux-kernel.vger.kernel.org>
X-Mailing-List: linux-kernel@vger.kernel.org
X-Lkml-Link: https://lkml.org/lkml/2001/9/18/174

Wojtek Pilorz wrote:
> 
> Could you try
> cdrecord -toc dev=x,y
> where x,y are numbers returned for your SCSI (either native or emulated)
> device by
>  cdrecord -scanbus
I think I finally got the cdrecord command to work (thanks Tobias).  By
the way, after today, I will be on vacation until Monday, so if I don't
reply to messages, don't think that it is that I do not appreciate all
the help that I am getting.
Thanks,
Bruce
# cdrecord -scanbus
Cdrecord 1.8 (i686-pc-linux-gnu) Copyright (C) 1995-2000 Jörg Schilling
Using libscg version 'schily-0.1'
scsibus0:
cdrecord: Warning: controller returns wrong size for CD capabilities
page.
        0,0,0     0) 'Lite-On ' 'LTN483S 48x Max ' 'PD02' Removable
CD-ROM
        0,1,0     1) *
        0,2,0     2) *
        0,3,0     3) *
        0,4,0     4) *
        0,5,0     5) *
        0,6,0     6) *
        0,7,0     7) *
# cdrecord -toc dev=0,0,0
Cdrecord 1.8 (i686-pc-linux-gnu) Copyright (C) 1995-2000 Jörg Schilling
scsidev: '0,0,0'
scsibus: 0 target: 0 lun: 0
Using libscg version 'schily-0.1'
cdrecord: Warning: controller returns wrong size for CD capabilities
page.
Device type    : Removable CD-ROM
Version        : 0
Response Format: 1
Vendor_info    : 'Lite-On '
Identifikation : 'LTN483S 48x Max '
Revision       : 'PD02'
Device seems to be: Generic mmc CD-ROM.
cdrecord: Warning: controller returns wrong size for CD capabilities
page.
cdrecord: Warning: controller returns wrong size for CD capabilities
page.
cdrecord: Warning: controller returns wrong size for CD capabilities
page.
Using generic SCSI-3/mmc CD driver (mmc_cd).
Driver flags   : SWABAUDIO
first: 1 last 2
track:   1 lba:         0 (        0) 00:02:00 adr: 1 control: 6 mode: 2
track:   2 lba:       512 (     2048) 00:08:62 adr: 1 control: 5 mode: 2
track:lout lba:     14144 (    56576) 03:10:44 adr: 1 control: 5 mode:
-1
#
-
To unsubscribe from this list: send the line "unsubscribe linux-kernel" in
the body of a message to majordomo@vger.kernel.org
More majordomo info at  
http://vger.kernel.org/majordomo-info.html
Please read the FAQ at  
http://www.tux.org/lkml/